<svg width="50" height="45" viewBox="0 0 50 45" fill="none" xmlns="http://www.w3.org/2000/svg">
<path d="M41.7755 0.000105411L33.7137 12.8213L32.8436 9.37354L29.6565 18.7571L36.2647 15.6589L36.2879 18.7637L49.6856 13.3914L42.217 13.1836L47.2565 5.93937L39.5077 10.079L41.7753 0L41.7755 0.000105411ZM20.349 3.39493L16.974 4.91432L18.7537 10.7843L0 19.2249L1.32511 22.165L20.0786 13.721L23.2855 18.9385L28.4865 16.5981L26.2354 9.17916L20.349 3.39493ZM19.0173 20.7642V22.9099H9.64048C11.3273 27.0028 15.0431 29.8107 19.0173 30.7441V34.2214H25.1937C23.9157 37.4412 21.66 40.0944 19.027 42.4052H16.3412V44.376H46.3302V42.4053H43.4397C40.4092 40.0961 38.1605 37.4464 36.9402 34.2214H43.6541V31.143C45.7369 30.4053 47.8202 29.0853 49.9032 27.2737C47.8136 25.4256 45.7656 24.3997 43.6541 23.9052V20.7644H19.0174L19.0173 20.7642Z" fill="black"/>
</svg>
